<svg width="24" height="24" viewBox="0 0 24 24" fill="none" xmlns="http://www.w3.org/2000/svg">
<path d="M14.3998 6.95005C14.3998 7.36426 14.7356 7.70005 15.1498 7.70005C15.564 7.70005 15.8998 7.36426 15.8998 6.95005H14.3998ZM15.1498 5.05005H15.8998C15.8998 4.85114 15.8208 4.66037 15.6801 4.51972L15.1498 5.05005ZM12.1498 2.05005L12.6801 1.51972C12.5395 1.37907 12.3487 1.30005 12.1498 1.30005V2.05005ZM7.5498 19.4C7.96402 19.4 8.2998 19.0643 8.2998 18.65C8.2998 18.2358 7.96402 17.9 7.5498 17.9V19.4ZM15.0104 16.4518C14.7352 16.1422 14.2611 16.1143 13.9516 16.3895C13.642 16.6647 13.6141 17.1388 13.8893 17.4484L15.0104 16.4518ZM16.0498 18.7501L15.4893 19.2484C15.6399 19.4178 15.859 19.51 16.0854 19.4992C16.3118 19.4885 16.5212 19.3759 16.6551 19.193L16.0498 18.7501ZM19.6551 15.093C19.8997 14.7587 19.827 14.2894 19.4927 14.0448C19.1584 13.8002 18.6892 13.8729 18.4446 14.2072L19.6551 15.093ZM7.59979 14.25C7.59979 14.6643 7.93558 15 8.34979 15C8.76401 15 9.09979 14.6643 9.09979 14.25H7.59979ZM9.09979 6.55005C9.09979 6.13584 8.76401 5.80005 8.34979 5.80005C7.93558 5.80005 7.59979 6.13584 7.59979 6.55005H9.09979ZM10.4998 10.7501C10.4998 11.1643 10.8356 11.5001 11.2498 11.5001C11.664 11.5001 11.9998 11.1643 11.9998 10.7501H10.4998ZM11.9998 7.65009C11.9998 7.23587 11.664 6.90009 11.2498 6.90009C10.8356 6.90009 10.4998 7.23587 10.4998 7.65009H11.9998ZM4.69983 14.2501C4.69983 14.6643 5.03562 15.0001 5.44983 15.0001C5.86404 15.0001 6.19983 14.6643 6.19983 14.2501H4.69983ZM6.19983 10.1501C6.19983 9.73587 5.86404 9.40009 5.44983 9.40009C5.03562 9.40009 4.69983 9.73587 4.69983 10.1501H6.19983ZM15.8998 6.95005V5.05005H14.3998V6.95005H15.8998ZM15.6801 4.51972C15.6778 4.51737 15.6754 4.51503 15.6731 4.51269C15.6708 4.51036 15.6684 4.50802 15.6661 4.50568C15.6638 4.50335 15.6614 4.50102 15.6591 4.49869C15.6568 4.49636 15.6544 4.49403 15.6521 4.4917C15.6498 4.48938 15.6475 4.48705 15.6451 4.48473C15.6428 4.48241 15.6405 4.48009 15.6382 4.47778C15.6359 4.47546 15.6336 4.47315 15.6312 4.47083C15.6289 4.46852 15.6266 4.46621 15.6243 4.4639C15.622 4.4616 15.6197 4.45929 15.6174 4.45699C15.6151 4.45468 15.6128 4.45238 15.6105 4.45008C15.6082 4.44779 15.6059 4.44549 15.6036 4.44319C15.6013 4.4409 15.599 4.43861 15.5967 4.43632C15.5944 4.43403 15.5922 4.43174 15.5899 4.42945C15.5876 4.42717 15.5853 4.42488 15.583 4.4226C15.5807 4.42032 15.5785 4.41804 15.5762 4.41576C15.5739 4.41349 15.5716 4.41121 15.5694 4.40894C15.5671 4.40667 15.5648 4.4044 15.5625 4.40213C15.5603 4.39986 15.558 4.39759 15.5557 4.39533C15.5535 4.39306 15.5512 4.3908 15.549 4.38854C15.5467 4.38628 15.5444 4.38402 15.5422 4.38177C15.5399 4.37951 15.5377 4.37726 15.5354 4.37501C15.5332 4.37276 15.5309 4.37051 15.5287 4.36826C15.5264 4.36601 15.5242 4.36377 15.5219 4.36152C15.5197 4.35928 15.5175 4.35704 15.5152 4.3548C15.513 4.35256 15.5107 4.35032 15.5085 4.34809C15.5063 4.34585 15.504 4.34362 15.5018 4.34139C15.4996 4.33916 15.4973 4.33693 15.4951 4.3347C15.4929 4.33248 15.4907 4.33025 15.4884 4.32803C15.4862 4.32581 15.484 4.32359 15.4818 4.32137C15.4796 4.31915 15.4773 4.31693 15.4751 4.31472C15.4729 4.31251 15.4707 4.31029 15.4685 4.30808C15.4663 4.30587 15.4641 4.30366 15.4619 4.30146C15.4597 4.29925 15.4575 4.29705 15.4553 4.29484C15.4531 4.29264 15.4509 4.29044 15.4487 4.28824C15.4465 4.28604 15.4443 4.28385 15.4421 4.28165C15.4399 4.27946 15.4377 4.27727 15.4355 4.27508C15.4333 4.27289 15.4311 4.2707 15.4289 4.26851C15.4267 4.26632 15.4246 4.26414 15.4224 4.26196C15.4202 4.25977 15.418 4.25759 15.4158 4.25541C15.4137 4.25323 15.4115 4.25106 15.4093 4.24888C15.4071 4.24671 15.405 4.24453 15.4028 4.24236C15.4006 4.24019 15.3984 4.23802 15.3963 4.23586C15.3941 4.23369 15.3919 4.23152 15.3898 4.22936C15.3876 4.2272 15.3855 4.22504 15.3833 4.22288C15.3811 4.22072 15.379 4.21856 15.3768 4.2164C15.3747 4.21425 15.3725 4.21209 15.3704 4.20994C15.3682 4.20779 15.3661 4.20564 15.3639 4.20349C15.3618 4.20134 15.3596 4.19919 15.3575 4.19705C15.3553 4.19491 15.3532 4.19276 15.351 4.19062C15.3489 4.18848 15.3468 4.18634 15.3446 4.1842C15.3425 4.18207 15.3403 4.17993 15.3382 4.1778C15.3361 4.17567 15.3339 4.17353 15.3318 4.1714C15.3297 4.16927 15.3276 4.16715 15.3254 4.16502C15.3233 4.16289 15.3212 4.16077 15.3191 4.15865C15.3169 4.15652 15.3148 4.1544 15.3127 4.15228C15.3106 4.15016 15.3085 4.14805 15.3063 4.14593C15.3042 4.14382 15.3021 4.1417 15.3 4.13959C15.2979 4.13748 15.2958 4.13537 15.2937 4.13326C15.2916 4.13115 15.2895 4.12905 15.2874 4.12694C15.2853 4.12484 15.2831 4.12273 15.281 4.12063C15.2789 4.11853 15.2768 4.11643 15.2747 4.11433C15.2727 4.11224 15.2706 4.11014 15.2685 4.10805C15.2664 4.10595 15.2643 4.10386 15.2622 4.10177C15.2601 4.09968 15.258 4.09759 15.2559 4.0955C15.2538 4.09341 15.2517 4.09133 15.2497 4.08924C15.2476 4.08716 15.2455 4.08508 15.2434 4.083C15.2413 4.08092 15.2393 4.07884 15.2372 4.07676C15.2351 4.07468 15.233 4.07261 15.2309 4.07053C15.2289 4.06846 15.2268 4.06639 15.2247 4.06432C15.2227 4.06225 15.2206 4.06018 15.2185 4.05811C15.2165 4.05604 15.2144 4.05398 15.2123 4.05191C15.2103 4.04985 15.2082 4.04779 15.2061 4.04573C15.2041 4.04367 15.202 4.04161 15.2 4.03955C15.1979 4.03749 15.1959 4.03544 15.1938 4.03338C15.1917 4.03133 15.1897 4.02928 15.1876 4.02723C15.1856 4.02518 15.1835 4.02313 15.1815 4.02108C15.1794 4.01903 15.1774 4.01699 15.1754 4.01494C15.1733 4.0129 15.1713 4.01085 15.1692 4.00881C15.1672 4.00677 15.1651 4.00473 15.1631 4.0027C15.1611 4.00066 15.159 3.99862 15.157 3.99659C15.155 3.99455 15.1529 3.99252 15.1509 3.99049C15.1489 3.98846 15.1468 3.98643 15.1448 3.9844C15.1428 3.98237 15.1408 3.98034 15.1387 3.97832C15.1367 3.97629 15.1347 3.97427 15.1327 3.97224C15.1306 3.97022 15.1286 3.9682 15.1266 3.96618C15.1246 3.96416 15.1226 3.96214 15.1205 3.96013C15.1185 3.95811 15.1165 3.9561 15.1145 3.95408C15.1125 3.95207 15.1105 3.95006 15.1085 3.94805C15.1065 3.94604 15.1044 3.94403 15.1024 3.94202C15.1004 3.94002 15.0984 3.93801 15.0964 3.93601C15.0944 3.934 15.0924 3.932 15.0904 3.93C15.0884 3.928 15.0864 3.926 15.0844 3.924C15.0824 3.922 15.0804 3.92 15.0784 3.91801C15.0764 3.91601 15.0744 3.91402 15.0724 3.91203C15.0704 3.91003 15.0685 3.90804 15.0665 3.90605C15.0645 3.90406 15.0625 3.90208 15.0605 3.90009C15.0585 3.8981 15.0565 3.89612 15.0545 3.89413C15.0526 3.89215 15.0506 3.89017 15.0486 3.88819C15.0466 3.88621 15.0446 3.88423 15.0427 3.88225C15.0407 3.88027 15.0387 3.87829 15.0367 3.87632C15.0348 3.87434 15.0328 3.87237 15.0308 3.8704C15.0288 3.86842 15.0269 3.86645 15.0249 3.86448C15.0229 3.86251 15.021 3.86054 15.019 3.85858C15.017 3.85661 15.0151 3.85464 15.0131 3.85268C15.0111 3.85071 15.0092 3.84875 15.0072 3.84679C15.0052 3.84483 15.0033 3.84287 15.0013 3.84091C14.9994 3.83895 14.9974 3.83699 14.9955 3.83504C14.9935 3.83308 14.9915 3.83113 14.9896 3.82917C14.9876 3.82722 14.9857 3.82527 14.9837 3.82331C14.9818 3.82136 14.9798 3.81941 14.9779 3.81747C14.9759 3.81552 14.974 3.81357 14.972 3.81162C14.9701 3.80968 14.9681 3.80773 14.9662 3.80579C14.9643 3.80385 14.9623 3.80191 14.9604 3.79996C14.9584 3.79802 14.9565 3.79608 14.9546 3.79415C14.9526 3.79221 14.9507 3.79027 14.9488 3.78834C14.9468 3.7864 14.9449 3.78447 14.9429 3.78253C14.941 3.7806 14.9391 3.77867 14.9372 3.77674C14.9352 3.77481 14.9333 3.77288 14.9314 3.77095C14.9294 3.76902 14.9275 3.76709 14.9256 3.76517C14.9237 3.76324 14.9217 3.76132 14.9198 3.7594C14.9179 3.75747 14.916 3.75555 14.914 3.75363C14.9121 3.75171 14.9102 3.74979 14.9083 3.74787C14.9064 3.74595 14.9045 3.74404 14.9025 3.74212C14.9006 3.7402 14.8987 3.73829 14.8968 3.73638C14.8949 3.73446 14.893 3.73255 14.8911 3.73064C14.8891 3.72873 14.8872 3.72682 14.8853 3.72491C14.8834 3.723 14.8815 3.72109 14.8796 3.71919C14.8777 3.71728 14.8758 3.71537 14.8739 3.71347C14.872 3.71156 14.8701 3.70966 14.8682 3.70776C14.8663 3.70586 14.8644 3.70396 14.8625 3.70206C14.8606 3.70016 14.8587 3.69826 14.8568 3.69636C14.8549 3.69446 14.853 3.69257 14.8511 3.69067C14.8492 3.68878 14.8473 3.68688 14.8454 3.68499C14.8435 3.6831 14.8416 3.6812 14.8397 3.67931C14.8378 3.67742 14.8359 3.67553 14.8341 3.67364C14.8322 3.67175 14.8303 3.66987 14.8284 3.66798C14.8265 3.66609 14.8246 3.66421 14.8227 3.66232C14.8209 3.66044 14.819 3.65856 14.8171 3.65667C14.8152 3.65479 14.8133 3.65291 14.8114 3.65103C14.8096 3.64915 14.8077 3.64727 14.8058 3.64539C14.8039 3.64351 14.8021 3.64164 14.8002 3.63976C14.7983 3.63789 14.7964 3.63601 14.7946 3.63414C14.7927 3.63226 14.7908 3.63039 14.7889 3.62852C14.7871 3.62665 14.7852 3.62477 14.7833 3.6229C14.7815 3.62103 14.7796 3.61917 14.7777 3.6173C14.7758 3.61543 14.774 3.61356 14.7721 3.6117C14.7702 3.60983 14.7684 3.60797 14.7665 3.6061C14.7647 3.60424 14.7628 3.60237 14.7609 3.60051C14.7591 3.59865 14.7572 3.59679 14.7553 3.59493C14.7535 3.59307 14.7516 3.59121 14.7498 3.58935C14.7479 3.58749 14.7461 3.58564 14.7442 3.58378C14.7423 3.58192 14.7405 3.58007 14.7386 3.57821C14.7368 3.57636 14.7349 3.57451 14.7331 3.57265C14.7312 3.5708 14.7294 3.56895 14.7275 3.5671C14.7257 3.56525 14.7238 3.5634 14.722 3.56155C14.7201 3.5597 14.7183 3.55785 14.7164 3.556C14.7146 3.55416 14.7127 3.55231 14.7109 3.55046C14.709 3.54862 14.7072 3.54677 14.7053 3.54493C14.7035 3.54309 14.7017 3.54124 14.6998 3.5394C14.698 3.53756 14.6961 3.53572 14.6943 3.53388C14.6925 3.53204 14.6906 3.5302 14.6888 3.52836C14.6869 3.52652 14.6851 3.52468 14.6833 3.52285C14.6814 3.52101 14.6796 3.51918 14.6778 3.51734C14.6759 3.5155 14.6741 3.51367 14.6723 3.51184C14.6704 3.51 14.6686 3.50817 14.6668 3.50634C14.6649 3.50451 14.6631 3.50268 14.6613 3.50085C14.6594 3.49902 14.6576 3.49719 14.6558 3.49536C14.6539 3.49353 14.6521 3.4917 14.6503 3.48987C14.6485 3.48805 14.6466 3.48622 14.6448 3.4844C14.643 3.48257 14.6412 3.48075 14.6393 3.47892C14.6375 3.4771 14.6357 3.47527 14.6339 3.47345C14.632 3.47163 14.6302 3.46981 14.6284 3.46799C14.6266 3.46617 14.6248 3.46435 14.6229 3.46253C14.6211 3.46071 14.6193 3.45889 14.6175 3.45707C14.6157 3.45525 14.6139 3.45344 14.612 3.45162C14.6102 3.4498 14.6084 3.44799 14.6066 3.44617C14.6048 3.44436 14.603 3.44254 14.6011 3.44073C14.5993 3.43891 14.5975 3.4371 14.5957 3.43529C14.5939 3.43348 14.5921 3.43167 14.5903 3.42986C14.5885 3.42804 14.5866 3.42623 14.5848 3.42442C14.583 3.42262 14.5812 3.42081 14.5794 3.419C14.5776 3.41719 14.5758 3.41538 14.574 3.41358C14.5722 3.41177 14.5704 3.40996 14.5686 3.40816C14.5668 3.40635 14.565 3.40455 14.5632 3.40274C14.5614 3.40094 14.5596 3.39914 14.5577 3.39733C14.5559 3.39553 14.5541 3.39373 14.5523 3.39193C14.5505 3.39012 14.5487 3.38832 14.5469 3.38652C14.5451 3.38472 14.5433 3.38292 14.5415 3.38112C14.5397 3.37932 14.5379 3.37753 14.5361 3.37573C14.5343 3.37393 14.5325 3.37213 14.5308 3.37034C14.529 3.36854 14.5272 3.36674 14.5254 3.36495C14.5236 3.36315 14.5218 3.36136 14.52 3.35956C14.5182 3.35777 14.5164 3.35597 14.5146 3.35418C14.5128 3.35239 14.511 3.35059 14.5092 3.3488C14.5074 3.34701 14.5056 3.34522 14.5038 3.34343C14.5021 3.34164 14.5003 3.33985 14.4985 3.33806C14.4967 3.33627 14.4949 3.33448 14.4931 3.33269C14.4913 3.3309 14.4895 3.32911 14.4877 3.32732C14.486 3.32553 14.4842 3.32375 14.4824 3.32196C14.4806 3.32017 14.4788 3.31839 14.477 3.3166C14.4752 3.31482 14.4734 3.31303 14.4717 3.31125C14.4699 3.30946 14.4681 3.30768 14.4663 3.30589C14.4645 3.30411 14.4627 3.30232 14.461 3.30054C14.4592 3.29876 14.4574 3.29698 14.4556 3.29519C14.4538 3.29341 14.452 3.29163 14.4503 3.28985C14.4485 3.28807 14.4467 3.28629 14.4449 3.28451C14.4431 3.28273 14.4414 3.28095 14.4396 3.27917C14.4378 3.27739 14.436 3.27561 14.4342 3.27383C14.4325 3.27205 14.4307 3.27028 14.4289 3.2685C14.4271 3.26672 14.4254 3.26494 14.4236 3.26317C14.4218 3.26139 14.42 3.25961 14.4183 3.25784C14.4165 3.25606 14.4147 3.25429 14.4129 3.25251C14.4112 3.25074 14.4094 3.24896 14.4076 3.24719C14.4058 3.24541 14.4041 3.24364 14.4023 3.24187C14.4005 3.24009 14.3987 3.23832 14.397 3.23655C14.3952 3.23477 14.3934 3.233 14.3916 3.23123C14.3899 3.22946 14.3881 3.22768 14.3863 3.22591C14.3846 3.22414 14.3828 3.22237 14.381 3.2206C14.3792 3.21883 14.3775 3.21706 14.3757 3.21529C14.3739 3.21352 14.3722 3.21175 14.3704 3.20998C14.3686 3.20821 14.3669 3.20644 14.3651 3.20467C14.3633 3.2029 14.3616 3.20114 14.3598 3.19937C14.358 3.1976 14.3562 3.19583 14.3545 3.19406C14.3527 3.1923 14.3509 3.19053 14.3492 3.18876C14.3474 3.18699 14.3456 3.18523 14.3439 3.18346C14.3421 3.1817 14.3403 3.17993 14.3386 3.17816C14.3368 3.1764 14.335 3.17463 14.3333 3.17287C14.3315 3.1711 14.3298 3.16934 14.328 3.16757C14.3262 3.16581 14.3245 3.16404 14.3227 3.16228C14.3209 3.16051 14.3192 3.15875 14.3174 3.15699C14.3156 3.15522 14.3139 3.15346 14.3121 3.15169C14.3103 3.14993 14.3086 3.14817 14.3068 3.1464C14.3051 3.14464 14.3033 3.14288 14.3015 3.14112C14.2998 3.13935 14.298 3.13759 14.2962 3.13583C14.2945 3.13407 14.2927 3.13231 14.291 3.13054C14.2892 3.12878 14.2874 3.12702 14.2857 3.12526C14.2839 3.1235 14.2822 3.12174 14.2804 3.11998C14.2786 3.11821 14.2769 3.11645 14.2751 3.11469C14.2733 3.11293 14.2716 3.11117 14.2698 3.10941C14.2681 3.10765 14.2663 3.10589 14.2645 3.10413C14.2628 3.10237 14.261 3.10061 14.2593 3.09885C14.2575 3.09709 14.2557 3.09533 14.254 3.09357C14.2522 3.09181 14.2505 3.09005 14.2487 3.08829C14.2469 3.08653 14.2452 3.08477 14.2434 3.08302C14.2417 3.08126 14.2399 3.0795 14.2382 3.07774C14.2364 3.07598 14.2346 3.07422 14.2329 3.07246C14.2311 3.0707 14.2294 3.06894 14.2276 3.06719C14.2258 3.06543 14.2241 3.06367 14.2223 3.06191C14.2206 3.06015 14.2188 3.05839 14.2171 3.05664C14.2153 3.05488 14.2135 3.05312 14.2118 3.05136C14.21 3.0496 14.2083 3.04785 14.2065 3.04609C14.2047 3.04433 14.203 3.04257 14.2012 3.04081C14.1995 3.03906 14.1977 3.0373 14.196 3.03554C14.1942 3.03378 14.1924 3.03202 14.1907 3.03027C14.1889 3.02851 14.1872 3.02675 14.1854 3.02499C14.1837 3.02323 14.1819 3.02148 14.1801 3.01972C14.1784 3.01796 14.1766 3.0162 14.1749 3.01445C14.1731 3.01269 14.1713 3.01093 14.1696 3.00917C14.1678 3.00741 14.1661 3.00566 14.1643 3.0039C14.1626 3.00214 14.1608 3.00038 14.159 2.99862C14.1573 2.99687 14.1555 2.99511 14.1538 2.99335C14.152 2.99159 14.1502 2.98983 14.1485 2.98808C14.1467 2.98632 14.145 2.98456 14.1432 2.9828C14.1415 2.98104 14.1397 2.97929 14.1379 2.97753C14.1362 2.97577 14.1344 2.97401 14.1327 2.97225C14.1309 2.97049 14.1291 2.96873 14.1274 2.96698C14.1256 2.96522 14.1239 2.96346 14.1221 2.9617C14.1204 2.95994 14.1186 2.95818 14.1168 2.95642C14.1151 2.95466 14.1133 2.9529 14.1116 2.95114C14.1098 2.94939 14.108 2.94763 14.1063 2.94587C14.1045 2.94411 14.1028 2.94235 14.101 2.94059C14.0992 2.93883 14.0975 2.93707 14.0957 2.93531C14.094 2.93355 14.0922 2.93179 14.0904 2.93003C14.0887 2.92827 14.0869 2.92651 14.0852 2.92474C14.0834 2.92298 14.0816 2.92122 14.0799 2.91946C14.0781 2.9177 14.0764 2.91594 14.0746 2.91418C14.0728 2.91242 14.0711 2.91066 14.0693 2.90889C14.0675 2.90713 14.0658 2.90537 14.064 2.90361C14.0623 2.90185 14.0605 2.90008 14.0587 2.89832C14.057 2.89656 14.0552 2.8948 14.0534 2.89303C14.0517 2.89127 14.0499 2.88951 14.0482 2.88774C14.0464 2.88598 14.0446 2.88422 14.0429 2.88245C14.0411 2.88069 14.0393 2.87892 14.0376 2.87716C14.0358 2.8754 14.034 2.87363 14.0323 2.87187C14.0305 2.8701 14.0288 2.86834 14.027 2.86657C14.0252 2.86481 14.0235 2.86304 14.0217 2.86127C14.0199 2.85951 14.0182 2.85774 14.0164 2.85598C14.0146 2.85421 14.0129 2.85244 14.0111 2.85068C14.0093 2.84891 14.0076 2.84714 14.0058 2.84537C14.004 2.84361 14.0023 2.84184 14.0005 2.84007C13.9987 2.8383 13.9969 2.83653 13.9952 2.83477C13.9934 2.833 13.9916 2.83123 13.9899 2.82946C13.9881 2.82769 13.9863 2.82592 13.9846 2.82415C13.9828 2.82238 13.981 2.82061 13.9793 2.81884C13.9775 2.81707 13.9757 2.8153 13.9739 2.81352C13.9722 2.81175 13.9704 2.80998 13.9686 2.80821C13.9669 2.80644 13.9651 2.80466 13.9633 2.80289C13.9615 2.80112 13.9598 2.79935 13.958 2.79757C13.9562 2.7958 13.9544 2.79402 13.9527 2.79225C13.9509 2.79048 13.9491 2.7887 13.9473 2.78693C13.9456 2.78515 13.9438 2.78338 13.942 2.7816C13.9402 2.77982 13.9385 2.77805 13.9367 2.77627C13.9349 2.77449 13.9331 2.77272 13.9314 2.77094C13.9296 2.76916 13.9278 2.76738 13.926 2.7656C13.9242 2.76383 13.9225 2.76205 13.9207 2.76027C13.9189 2.75849 13.9171 2.75671 13.9153 2.75493C13.9136 2.75315 13.9118 2.75137 13.91 2.74959C13.9082 2.74781 13.9064 2.74602 13.9047 2.74424C13.9029 2.74246 13.9011 2.74068 13.8993 2.7389C13.8975 2.73711 13.8957 2.73533 13.894 2.73355C13.8922 2.73176 13.8904 2.72998 13.8886 2.72819C13.8868 2.72641 13.885 2.72462 13.8833 2.72284C13.8815 2.72105 13.8797 2.71926 13.8779 2.71748C13.8761 2.71569 13.8743 2.7139 13.8725 2.71211C13.8707 2.71033 13.869 2.70854 13.8672 2.70675C13.8654 2.70496 13.8636 2.70317 13.8618 2.70138C13.86 2.69959 13.8582 2.6978 13.8564 2.69601C13.8546 2.69422 13.8528 2.69243 13.8511 2.69063C13.8493 2.68884 13.8475 2.68705 13.8457 2.68526C13.8439 2.68346 13.8421 2.68167 13.8403 2.67988C13.8385 2.67808 13.8367 2.67629 13.8349 2.67449C13.8331 2.67269 13.8313 2.6709 13.8295 2.6691C13.8277 2.6673 13.8259 2.66551 13.8241 2.66371C13.8223 2.66191 13.8205 2.66011 13.8187 2.65831C13.8169 2.65651 13.8151 2.65471 13.8133 2.65291C13.8115 2.65111 13.8097 2.64931 13.8079 2.64751C13.8061 2.64571 13.8043 2.64391 13.8025 2.6421C13.8007 2.6403 13.7989 2.6385 13.7971 2.63669C13.7953 2.63489 13.7935 2.63309 13.7917 2.63128C13.7899 2.62947 13.7881 2.62767 13.7863 2.62586C13.7845 2.62405 13.7827 2.62225 13.7809 2.62044C13.779 2.61863 13.7772 2.61682 13.7754 2.61501C13.7736 2.6132 13.7718 2.61139 13.77 2.60958C13.7682 2.60777 13.7664 2.60596 13.7646 2.60415C13.7628 2.60234 13.7609 2.60052 13.7591 2.59871C13.7573 2.5969 13.7555 2.59508 13.7537 2.59327C13.7519 2.59145 13.7501 2.58964 13.7482 2.58782C13.7464 2.586 13.7446 2.58419 13.7428 2.58237C13.741 2.58055 13.7391 2.57873 13.7373 2.57691C13.7355 2.57509 13.7337 2.57327 13.7319 2.57145C13.73 2.56963 13.7282 2.56781 13.7264 2.56599C13.7246 2.56416 13.7228 2.56234 13.7209 2.56052C13.7191 2.55869 13.7173 2.55687 13.7155 2.55504C13.7136 2.55322 13.7118 2.55139 13.71 2.54956C13.7082 2.54774 13.7063 2.54591 13.7045 2.54408C13.7027 2.54225 13.7008 2.54042 13.699 2.53859C13.6972 2.53676 13.6953 2.53493 13.6935 2.5331C13.6917 2.53127 13.6898 2.52943 13.688 2.5276C13.6862 2.52577 13.6843 2.52393 13.6825 2.5221C13.6807 2.52026 13.6788 2.51843 13.677 2.51659C13.6752 2.51475 13.6733 2.51292 13.6715 2.51108C13.6697 2.50924 13.6678 2.5074 13.666 2.50556C13.6641 2.50372 13.6623 2.50188 13.6605 2.50004C13.6586 2.49819 13.6568 2.49635 13.6549 2.49451C13.6531 2.49266 13.6512 2.49082 13.6494 2.48897C13.6475 2.48713 13.6457 2.48528 13.6438 2.48343C13.642 2.48159 13.6402 2.47974 13.6383 2.47789C13.6365 2.47604 13.6346 2.47419 13.6328 2.47234C13.6309 2.47049 13.6291 2.46864 13.6272 2.46678C13.6253 2.46493 13.6235 2.46308 13.6216 2.46122C13.6198 2.45937 13.6179 2.45751 13.6161 2.45566C13.6142 2.4538 13.6124 2.45194 13.6105 2.45009C13.6086 2.44823 13.6068 2.44637 13.6049 2.44451C13.6031 2.44265 13.6012 2.44079 13.5993 2.43892C13.5975 2.43706 13.5956 2.4352 13.5938 2.43334C13.5919 2.43147 13.59 2.42961 13.5882 2.42774C13.5863 2.42587 13.5844 2.42401 13.5826 2.42214C13.5807 2.42027 13.5788 2.4184 13.5769 2.41653C13.5751 2.41466 13.5732 2.41279 13.5713 2.41092C13.5695 2.40905 13.5676 2.40717 13.5657 2.4053C13.5638 2.40343 13.562 2.40155 13.5601 2.39968C13.5582 2.3978 13.5563 2.39592 13.5545 2.39404C13.5526 2.39217 13.5507 2.39029 13.5488 2.38841C13.5469 2.38653 13.5451 2.38465 13.5432 2.38276C13.5413 2.38088 13.5394 2.379 13.5375 2.37711C13.5356 2.37523 13.5338 2.37334 13.5319 2.37146C13.53 2.36957 13.5281 2.36768 13.5262 2.36579C13.5243 2.36391 13.5224 2.36202 13.5205 2.36012C13.5186 2.35823 13.5168 2.35634 13.5149 2.35445C13.513 2.35256 13.5111 2.35066 13.5092 2.34877C13.5073 2.34687 13.5054 2.34497 13.5035 2.34308C13.5016 2.34118 13.4997 2.33928 13.4978 2.33738C13.4959 2.33548 13.494 2.33358 13.4921 2.33168C13.4902 2.32978 13.4883 2.32787 13.4864 2.32597C13.4845 2.32406 13.4826 2.32216 13.4807 2.32025C13.4788 2.31835 13.4769 2.31644 13.4749 2.31453C13.473 2.31262 13.4711 2.31071 13.4692 2.3088C13.4673 2.30689 13.4654 2.30498 13.4635 2.30306C13.4616 2.30115 13.4596 2.29923 13.4577 2.29732C13.4558 2.2954 13.4539 2.29348 13.452 2.29157C13.4501 2.28965 13.4481 2.28773 13.4462 2.28581C13.4443 2.28389 13.4424 2.28196 13.4405 2.28004C13.4385 2.27812 13.4366 2.27619 13.4347 2.27427C13.4328 2.27234 13.4308 2.27042 13.4289 2.26849C13.427 2.26656 13.425 2.26463 13.4231 2.2627C13.4212 2.26077 13.4193 2.25884 13.4173 2.2569C13.4154 2.25497 13.4135 2.25304 13.4115 2.2511C13.4096 2.24917 13.4076 2.24723 13.4057 2.24529C13.4038 2.24335 13.4018 2.24141 13.3999 2.23947C13.3979 2.23753 13.396 2.23559 13.3941 2.23365C13.3921 2.2317 13.3902 2.22976 13.3882 2.22781C13.3863 2.22587 13.3843 2.22392 13.3824 2.22197C13.3804 2.22002 13.3785 2.21807 13.3765 2.21612C13.3746 2.21417 13.3726 2.21222 13.3707 2.21027C13.3687 2.20831 13.3668 2.20636 13.3648 2.2044C13.3629 2.20244 13.3609 2.20049 13.3589 2.19853C13.357 2.19657 13.355 2.19461 13.3531 2.19265C13.3511 2.19069 13.3491 2.18872 13.3472 2.18676C13.3452 2.18479 13.3432 2.18283 13.3413 2.18086C13.3393 2.17889 13.3373 2.17693 13.3354 2.17496C13.3334 2.17299 13.3314 2.17101 13.3295 2.16904C13.3275 2.16707 13.3255 2.1651 13.3235 2.16312C13.3216 2.16114 13.3196 2.15917 13.3176 2.15719C13.3156 2.15521 13.3136 2.15323 13.3117 2.15125C13.3097 2.14927 13.3077 2.14729 13.3057 2.1453C13.3037 2.14332 13.3018 2.14133 13.2998 2.13935C13.2978 2.13736 13.2958 2.13537 13.2938 2.13338C13.2918 2.13139 13.2898 2.1294 13.2878 2.12741C13.2858 2.12542 13.2838 2.12342 13.2818 2.12143C13.2798 2.11943 13.2779 2.11744 13.2759 2.11544C13.2739 2.11344 13.2719 2.11144 13.2699 2.10944C13.2679 2.10744 13.2659 2.10543 13.2638 2.10343C13.2618 2.10143 13.2598 2.09942 13.2578 2.09741C13.2558 2.09541 13.2538 2.0934 13.2518 2.09139C13.2498 2.08938 13.2478 2.08737 13.2458 2.08535C13.2438 2.08334 13.2417 2.08132 13.2397 2.07931C13.2377 2.07729 13.2357 2.07527 13.2337 2.07326C13.2317 2.07124 13.2296 2.06922 13.2276 2.06719C13.2256 2.06517 13.2236 2.06315 13.2215 2.06112C13.2195 2.0591 13.2175 2.05707 13.2155 2.05504C13.2134 2.05301 13.2114 2.05098 13.2094 2.04895C13.2073 2.04692 13.2053 2.04489 13.2033 2.04285C13.2012 2.04082 13.1992 2.03878 13.1972 2.03674C13.1951 2.0347 13.1931 2.03266 13.191 2.03062C13.189 2.02858 13.187 2.02654 13.1849 2.0245C13.1829 2.02245 13.1808 2.02041 13.1788 2.01836C13.1767 2.01631 13.1747 2.01426 13.1726 2.01221C13.1706 2.01016 13.1685 2.00811 13.1665 2.00605C13.1644 2.004 13.1624 2.00194 13.1603 1.99989C13.1582 1.99783 13.1562 1.99577 13.1541 1.99371C13.1521 1.99165 13.15 1.98959 13.1479 1.98752C13.1459 1.98546 13.1438 1.98339 13.1417 1.98133C13.1397 1.97926 13.1376 1.97719 13.1355 1.97512C13.1335 1.97305 13.1314 1.97098 13.1293 1.9689C13.1272 1.96683 13.1252 1.96476 13.1231 1.96268C13.121 1.9606 13.1189 1.95852 13.1169 1.95644C13.1148 1.95436 13.1127 1.95228 13.1106 1.95019C13.1085 1.94811 13.1064 1.94602 13.1044 1.94394C13.1023 1.94185 13.1002 1.93976 13.0981 1.93767C13.096 1.93558 13.0939 1.93349 13.0918 1.93139C13.0897 1.9293 13.0876 1.9272 13.0855 1.9251C13.0834 1.92301 13.0813 1.92091 13.0792 1.91881C13.0771 1.9167 13.075 1.9146 13.0729 1.9125C13.0708 1.91039 13.0687 1.90829 13.0666 1.90618C13.0645 1.90407 13.0624 1.90196 13.0603 1.89985C13.0582 1.89773 13.056 1.89562 13.0539 1.89351C13.0518 1.89139 13.0497 1.88927 13.0476 1.88715C13.0455 1.88503 13.0433 1.88291 13.0412 1.88079C13.0391 1.87867 13.037 1.87654 13.0348 1.87442C13.0327 1.87229 13.0306 1.87016 13.0284 1.86803C13.0263 1.8659 13.0242 1.86377 13.0221 1.86164C13.0199 1.85951 13.0178 1.85737 13.0156 1.85523C13.0135 1.8531 13.0114 1.85096 13.0092 1.84882C13.0071 1.84667 13.0049 1.84453 13.0028 1.84239C13.0007 1.84024 12.9985 1.8381 12.9964 1.83595C12.9942 1.8338 12.9921 1.83165 12.9899 1.8295C12.9878 1.82734 12.9856 1.82519 12.9835 1.82304C12.9813 1.82088 12.9791 1.81872 12.977 1.81656C12.9748 1.8144 12.9727 1.81224 12.9705 1.81008C12.9683 1.80791 12.9662 1.80575 12.964 1.80358C12.9618 1.80141 12.9597 1.79924 12.9575 1.79707C12.9553 1.7949 12.9531 1.79273 12.951 1.79055C12.9488 1.78838 12.9466 1.7862 12.9444 1.78402C12.9423 1.78185 12.9401 1.77966 12.9379 1.77748C12.9357 1.7753 12.9335 1.77311 12.9313 1.77093C12.9292 1.76874 12.927 1.76655 12.9248 1.76436C12.9226 1.76217 12.9204 1.75998 12.9182 1.75778C12.916 1.75559 12.9138 1.75339 12.9116 1.7512C12.9094 1.749 12.9072 1.7468 12.905 1.74459C12.9028 1.74239 12.9006 1.74019 12.8984 1.73798C12.8962 1.73577 12.894 1.73357 12.8918 1.73136C12.8896 1.72914 12.8873 1.72693 12.8851 1.72472C12.8829 1.7225 12.8807 1.72029 12.8785 1.71807C12.8763 1.71585 12.874 1.71363 12.8718 1.71141C12.8696 1.70918 12.8674 1.70696 12.8651 1.70473C12.8629 1.70251 12.8607 1.70028 12.8585 1.69805C12.8562 1.69582 12.854 1.69358 12.8518 1.69135C12.8495 1.68911 12.8473 1.68688 12.8451 1.68464C12.8428 1.6824 12.8406 1.68016 12.8383 1.67791C12.8361 1.67567 12.8338 1.67343 12.8316 1.67118C12.8293 1.66893 12.8271 1.66668 12.8248 1.66443C12.8226 1.66218 12.8203 1.65992 12.8181 1.65767C12.8158 1.65541 12.8136 1.65316 12.8113 1.6509C12.8091 1.64864 12.8068 1.64637 12.8045 1.64411C12.8023 1.64184 12.8 1.63958 12.7977 1.63731C12.7955 1.63504 12.7932 1.63277 12.7909 1.6305C12.7886 1.62822 12.7864 1.62595 12.7841 1.62367C12.7818 1.6214 12.7795 1.61912 12.7773 1.61683C12.775 1.61455 12.7727 1.61227 12.7704 1.60998C12.7681 1.6077 12.7658 1.60541 12.7635 1.60312C12.7612 1.60083 12.759 1.59854 12.7567 1.59624C12.7544 1.59395 12.7521 1.59165 12.7498 1.58935C12.7475 1.58705 12.7452 1.58475 12.7429 1.58245C12.7406 1.58015 12.7383 1.57784 12.7359 1.57553C12.7336 1.57323 12.7313 1.57092 12.729 1.5686C12.7267 1.56629 12.7244 1.56398 12.7221 1.56166C12.7198 1.55934 12.7174 1.55703 12.7151 1.5547C12.7128 1.55238 12.7105 1.55006 12.7081 1.54773C12.7058 1.54541 12.7035 1.54308 12.7012 1.54075C12.6988 1.53842 12.6965 1.53609 12.6942 1.53375C12.6918 1.53142 12.6895 1.52908 12.6872 1.52674C12.6848 1.5244 12.6825 1.52206 12.6801 1.51972L11.6195 2.58038C11.6218 2.58272 11.6242 2.58506 11.6265 2.5874C11.6288 2.58974 11.6312 2.59208 11.6335 2.59441C11.6358 2.59675 11.6382 2.59908 11.6405 2.60141C11.6428 2.60374 11.6452 2.60607 11.6475 2.60839C11.6498 2.61072 11.6521 2.61304 11.6545 2.61536C11.6568 2.61769 11.6591 2.62 11.6614 2.62232C11.6637 2.62464 11.666 2.62695 11.6684 2.62926C11.6707 2.63158 11.673 2.63389 11.6753 2.63619C11.6776 2.6385 11.6799 2.64081 11.6822 2.64311C11.6845 2.64541 11.6868 2.64771 11.6891 2.65001C11.6914 2.65231 11.6937 2.65461 11.696 2.6569C11.6983 2.6592 11.7006 2.66149 11.7029 2.66378C11.7052 2.66607 11.7075 2.66836 11.7097 2.67064C11.712 2.67293 11.7143 2.67521 11.7166 2.6775C11.7189 2.67978 11.7212 2.68206 11.7234 2.68433C11.7257 2.68661 11.728 2.68888 11.7303 2.69116C11.7325 2.69343 11.7348 2.6957 11.7371 2.69797C11.7393 2.70024 11.7416 2.7025 11.7439 2.70477C11.7461 2.70703 11.7484 2.7093 11.7507 2.71156C11.7529 2.71382 11.7552 2.71607 11.7574 2.71833C11.7597 2.72058 11.7619 2.72284 11.7642 2.72509C11.7664 2.72734 11.7687 2.72959 11.7709 2.73184C11.7732 2.73409 11.7754 2.73633 11.7777 2.73857C11.7799 2.74082 11.7822 2.74306 11.7844 2.7453C11.7866 2.74754 11.7889 2.74977 11.7911 2.75201C11.7933 2.75424 11.7956 2.75648 11.7978 2.75871C11.8 2.76094 11.8023 2.76317 11.8045 2.76539C11.8067 2.76762 11.8089 2.76984 11.8112 2.77207C11.8134 2.77429 11.8156 2.77651 11.8178 2.77873C11.82 2.78095 11.8223 2.78316 11.8245 2.78538C11.8267 2.78759 11.8289 2.7898 11.8311 2.79202C11.8333 2.79423 11.8355 2.79643 11.8377 2.79864C11.8399 2.80085 11.8421 2.80305 11.8443 2.80525C11.8466 2.80746 11.8488 2.80966 11.851 2.81186C11.8531 2.81405 11.8553 2.81625 11.8575 2.81844C11.8597 2.82064 11.8619 2.82283 11.8641 2.82502C11.8663 2.82721 11.8685 2.8294 11.8707 2.83159C11.8729 2.83377 11.8751 2.83596 11.8772 2.83814C11.8794 2.84032 11.8816 2.84251 11.8838 2.84468C11.886 2.84686 11.8881 2.84904 11.8903 2.85121C11.8925 2.85339 11.8947 2.85556 11.8968 2.85773C11.899 2.8599 11.9012 2.86207 11.9033 2.86424C11.9055 2.86641 11.9077 2.86857 11.9098 2.87074C11.912 2.8729 11.9142 2.87506 11.9163 2.87722C11.9185 2.87938 11.9206 2.88154 11.9228 2.8837C11.9249 2.88585 11.9271 2.88801 11.9293 2.89016C11.9314 2.89231 11.9336 2.89446 11.9357 2.89661C11.9379 2.89876 11.94 2.9009 11.9421 2.90305C11.9443 2.90519 11.9464 2.90733 11.9486 2.90948C11.9507 2.91162 11.9529 2.91376 11.955 2.91589C11.9571 2.91803 11.9593 2.92017 11.9614 2.9223C11.9635 2.92443 11.9657 2.92656 11.9678 2.92869C11.9699 2.93082 11.972 2.93295 11.9742 2.93508C11.9763 2.9372 11.9784 2.93933 11.9805 2.94145C11.9827 2.94357 11.9848 2.9457 11.9869 2.94781C11.989 2.94993 11.9911 2.95205 11.9933 2.95417C11.9954 2.95628 11.9975 2.95839 11.9996 2.96051C12.0017 2.96262 12.0038 2.96473 12.0059 2.96684C12.008 2.96895 12.0101 2.97105 12.0123 2.97316C12.0144 2.97526 12.0165 2.97736 12.0186 2.97947C12.0207 2.98157 12.0228 2.98367 12.0249 2.98576C12.027 2.98786 12.0291 2.98996 12.0311 2.99205C12.0332 2.99415 12.0353 2.99624 12.0374 2.99833C12.0395 3.00042 12.0416 3.00251 12.0437 3.0046C12.0458 3.00669 12.0479 3.00877 12.0499 3.01085C12.052 3.01294 12.0541 3.01502 12.0562 3.0171C12.0583 3.01918 12.0604 3.02126 12.0624 3.02334C12.0645 3.02542 12.0666 3.02749 12.0687 3.02956C12.0707 3.03164 12.0728 3.03371 12.0749 3.03578C12.0769 3.03785 12.079 3.03992 12.0811 3.04199C12.0831 3.04405 12.0852 3.04612 12.0873 3.04818C12.0893 3.05025 12.0914 3.05231 12.0935 3.05437C12.0955 3.05643 12.0976 3.05849 12.0996 3.06055C12.1017 3.0626 12.1038 3.06466 12.1058 3.06671C12.1079 3.06877 12.1099 3.07082 12.112 3.07287C12.114 3.07492 12.1161 3.07697 12.1181 3.07902C12.1202 3.08107 12.1222 3.08311 12.1243 3.08516C12.1263 3.0872 12.1283 3.08924 12.1304 3.09128C12.1324 3.09332 12.1345 3.09536 12.1365 3.0974C12.1385 3.09944 12.1406 3.10148 12.1426 3.10351C12.1446 3.10555 12.1467 3.10758 12.1487 3.10961C12.1507 3.11164 12.1528 3.11367 12.1548 3.1157C12.1568 3.11773 12.1589 3.11976 12.1609 3.12178C12.1629 3.12381 12.1649 3.12583 12.1669 3.12785C12.169 3.12988 12.171 3.1319 12.173 3.13392C12.175 3.13593 12.177 3.13795 12.1791 3.13997C12.1811 3.14199 12.1831 3.144 12.1851 3.14601C12.1871 3.14803 12.1891 3.15004 12.1911 3.15205C12.1932 3.15406 12.1952 3.15607 12.1972 3.15807C12.1992 3.16008 12.2012 3.16209 12.2032 3.16409C12.2052 3.1661 12.2072 3.1681 12.2092 3.1701C12.2112 3.1721 12.2132 3.1741 12.2152 3.1761C12.2172 3.1781 12.2192 3.18009 12.2212 3.18209C12.2232 3.18408 12.2252 3.18608 12.2272 3.18807C12.2292 3.19006 12.2311 3.19205 12.2331 3.19404C12.2351 3.19603 12.2371 3.19802 12.2391 3.20001C12.2411 3.20199 12.2431 3.20398 12.2451 3.20596C12.247 3.20795 12.249 3.20993 12.251 3.21191C12.253 3.21389 12.255 3.21587 12.2569 3.21785C12.2589 3.21983 12.2609 3.2218 12.2629 3.22378C12.2649 3.22576 12.2668 3.22773 12.2688 3.2297C12.2708 3.23167 12.2727 3.23365 12.2747 3.23562C12.2767 3.23759 12.2786 3.23955 12.2806 3.24152C12.2826 3.24349 12.2845 3.24545 12.2865 3.24742C12.2885 3.24938 12.2904 3.25135 12.2924 3.25331C12.2944 3.25527 12.2963 3.25723 12.2983 3.25919C12.3002 3.26115 12.3022 3.26311 12.3042 3.26506C12.3061 3.26702 12.3081 3.26897 12.31 3.27093C12.312 3.27288 12.3139 3.27483 12.3159 3.27678C12.3178 3.27873 12.3198 3.28068 12.3217 3.28263C12.3237 3.28458 12.3256 3.28653 12.3276 3.28847C12.3295 3.29042 12.3315 3.29236 12.3334 3.29431C12.3353 3.29625 12.3373 3.29819 12.3392 3.30013C12.3412 3.30207 12.3431 3.30401 12.345 3.30595C12.347 3.30789 12.3489 3.30983 12.3509 3.31176C12.3528 3.3137 12.3547 3.31563 12.3567 3.31756C12.3586 3.3195 12.3605 3.32143 12.3625 3.32336C12.3644 3.32529 12.3663 3.32722 12.3682 3.32915C12.3702 3.33108 12.3721 3.333 12.374 3.33493C12.3759 3.33685 12.3779 3.33878 12.3798 3.3407C12.3817 3.34262 12.3836 3.34455 12.3856 3.34647C12.3875 3.34839 12.3894 3.35031 12.3913 3.35223C12.3932 3.35414 12.3952 3.35606 12.3971 3.35798C12.399 3.35989 12.4009 3.36181 12.4028 3.36372C12.4047 3.36564 12.4066 3.36755 12.4086 3.36946C12.4105 3.37137 12.4124 3.37328 12.4143 3.37519C12.4162 3.3771 12.4181 3.37901 12.42 3.38091C12.4219 3.38282 12.4238 3.38472 12.4257 3.38663C12.4276 3.38853 12.4295 3.39044 12.4314 3.39234C12.4333 3.39424 12.4352 3.39614 12.4371 3.39804C12.439 3.39994 12.4409 3.40184 12.4428 3.40374C12.4447 3.40563 12.4466 3.40753 12.4485 3.40943C12.4504 3.41132 12.4523 3.41322 12.4542 3.41511C12.4561 3.417 12.458 3.41889 12.4599 3.42078C12.4618 3.42268 12.4637 3.42457 12.4655 3.42645C12.4674 3.42834 12.4693 3.43023 12.4712 3.43212C12.4731 3.434 12.475 3.43589 12.4769 3.43777C12.4788 3.43966 12.4806 3.44154 12.4825 3.44342C12.4844 3.44531 12.4863 3.44719 12.4882 3.44907C12.49 3.45095 12.4919 3.45283 12.4938 3.4547C12.4957 3.45658 12.4976 3.45846 12.4994 3.46034C12.5013 3.46221 12.5032 3.46409 12.5051 3.46596C12.5069 3.46784 12.5088 3.46971 12.5107 3.47158C12.5125 3.47345 12.5144 3.47532 12.5163 3.47719C12.5182 3.47906 12.52 3.48093 12.5219 3.4828C12.5238 3.48467 12.5256 3.48653 12.5275 3.4884C12.5294 3.49027 12.5312 3.49213 12.5331 3.494C12.535 3.49586 12.5368 3.49772 12.5387 3.49959C12.5405 3.50145 12.5424 3.50331 12.5443 3.50517C12.5461 3.50703 12.548 3.50889 12.5498 3.51075C12.5517 3.5126 12.5536 3.51446 12.5554 3.51632C12.5573 3.51817 12.5591 3.52003 12.561 3.52188C12.5628 3.52374 12.5647 3.52559 12.5665 3.52745C12.5684 3.5293 12.5702 3.53115 12.5721 3.533C12.5739 3.53485 12.5758 3.5367 12.5776 3.53855C12.5795 3.5404 12.5813 3.54225 12.5832 3.54409C12.585 3.54594 12.5869 3.54779 12.5887 3.54963C12.5906 3.55148 12.5924 3.55332 12.5943 3.55517C12.5961 3.55701 12.5979 3.55885 12.5998 3.5607C12.6016 3.56254 12.6035 3.56438 12.6053 3.56622C12.6072 3.56806 12.609 3.5699 12.6108 3.57174C12.6127 3.57358 12.6145 3.57541 12.6163 3.57725C12.6182 3.57909 12.62 3.58092 12.6219 3.58276C12.6237 3.58459 12.6255 3.58643 12.6274 3.58826C12.6292 3.59009 12.631 3.59193 12.6329 3.59376C12.6347 3.59559 12.6365 3.59742 12.6383 3.59925C12.6402 3.60108 12.642 3.60291 12.6438 3.60474C12.6457 3.60657 12.6475 3.6084 12.6493 3.61022C12.6511 3.61205 12.653 3.61388 12.6548 3.6157C12.6566 3.61753 12.6584 3.61935 12.6603 3.62118C12.6621 3.623 12.6639 3.62482 12.6657 3.62665C12.6676 3.62847 12.6694 3.63029 12.6712 3.63211C12.673 3.63393 12.6748 3.63575 12.6767 3.63757C12.6785 3.63939 12.6803 3.64121 12.6821 3.64303C12.6839 3.64485 12.6858 3.64666 12.6876 3.64848C12.6894 3.6503 12.6912 3.65211 12.693 3.65393C12.6948 3.65574 12.6967 3.65756 12.6985 3.65937C12.7003 3.66118 12.7021 3.663 12.7039 3.66481C12.7057 3.66662 12.7075 3.66843 12.7093 3.67024C12.7111 3.67205 12.713 3.67386 12.7148 3.67567C12.7166 3.67748 12.7184 3.67929 12.7202 3.6811C12.722 3.68291 12.7238 3.68471 12.7256 3.68652C12.7274 3.68833 12.7292 3.69013 12.731 3.69194C12.7328 3.69375 12.7346 3.69555 12.7364 3.69735C12.7383 3.69916 12.7401 3.70096 12.7419 3.70276C12.7437 3.70457 12.7455 3.70637 12.7473 3.70817C12.7491 3.70997 12.7509 3.71177 12.7527 3.71357C12.7545 3.71538 12.7563 3.71717 12.7581 3.71897C12.7599 3.72077 12.7617 3.72257 12.7635 3.72437C12.7653 3.72617 12.7671 3.72796 12.7689 3.72976C12.7707 3.73156 12.7724 3.73335 12.7742 3.73515C12.776 3.73695 12.7778 3.73874 12.7796 3.74054C12.7814 3.74233 12.7832 3.74412 12.785 3.74592C12.7868 3.74771 12.7886 3.7495 12.7904 3.75129C12.7922 3.75309 12.794 3.75488 12.7958 3.75667C12.7976 3.75846 12.7993 3.76025 12.8011 3.76204C12.8029 3.76383 12.8047 3.76562 12.8065 3.76741C12.8083 3.7692 12.8101 3.77099 12.8119 3.77278C12.8137 3.77456 12.8154 3.77635 12.8172 3.77814C12.819 3.77992 12.8208 3.78171 12.8226 3.7835C12.8244 3.78528 12.8262 3.78707 12.8279 3.78885C12.8297 3.79064 12.8315 3.79242 12.8333 3.79421C12.8351 3.79599 12.8369 3.79777 12.8387 3.79956C12.8404 3.80134 12.8422 3.80312 12.844 3.8049C12.8458 3.80668 12.8476 3.80847 12.8493 3.81025C12.8511 3.81203 12.8529 3.81381 12.8547 3.81559C12.8565 3.81737 12.8582 3.81915 12.86 3.82093C12.8618 3.82271 12.8636 3.82449 12.8654 3.82627C12.8671 3.82804 12.8689 3.82982 12.8707 3.8316C12.8725 3.83338 12.8742 3.83515 12.876 3.83693C12.8778 3.83871 12.8796 3.84048 12.8814 3.84226C12.8831 3.84404 12.8849 3.84581 12.8867 3.84759C12.8885 3.84936 12.8902 3.85114 12.892 3.85291C12.8938 3.85468 12.8956 3.85646 12.8973 3.85823C12.8991 3.86001 12.9009 3.86178 12.9026 3.86355C12.9044 3.86532 12.9062 3.8671 12.908 3.86887C12.9097 3.87064 12.9115 3.87241 12.9133 3.87418C12.9151 3.87596 12.9168 3.87773 12.9186 3.8795C12.9204 3.88127 12.9221 3.88304 12.9239 3.88481C12.9257 3.88658 12.9274 3.88835 12.9292 3.89012C12.931 3.89189 12.9328 3.89366 12.9345 3.89543C12.9363 3.89719 12.9381 3.89896 12.9398 3.90073C12.9416 3.9025 12.9434 3.90427 12.9451 3.90603C12.9469 3.9078 12.9487 3.90957 12.9504 3.91134C12.9522 3.9131 12.954 3.91487 12.9557 3.91664C12.9575 3.9184 12.9593 3.92017 12.961 3.92193C12.9628 3.9237 12.9646 3.92547 12.9663 3.92723C12.9681 3.929 12.9699 3.93076 12.9716 3.93253C12.9734 3.93429 12.9752 3.93606 12.9769 3.93782C12.9787 3.93958 12.9804 3.94135 12.9822 3.94311C12.984 3.94488 12.9857 3.94664 12.9875 3.9484C12.9893 3.95017 12.991 3.95193 12.9928 3.95369C12.9946 3.95546 12.9963 3.95722 12.9981 3.95898C12.9998 3.96074 13.0016 3.96251 13.0034 3.96427C13.0051 3.96603 13.0069 3.96779 13.0086 3.96955C13.0104 3.97132 13.0122 3.97308 13.0139 3.97484C13.0157 3.9766 13.0175 3.97836 13.0192 3.98012C13.021 3.98188 13.0227 3.98364 13.0245 3.9854C13.0263 3.98717 13.028 3.98893 13.0298 3.99069C13.0315 3.99245 13.0333 3.99421 13.0351 3.99597C13.0368 3.99773 13.0386 3.99949 13.0403 4.00125C13.0421 4.00301 13.0439 4.00477 13.0456 4.00653C13.0474 4.00829 13.0491 4.01005 13.0509 4.0118C13.0527 4.01356 13.0544 4.01532 13.0562 4.01708C13.0579 4.01884 13.0597 4.0206 13.0615 4.02236C13.0632 4.02412 13.065 4.02588 13.0667 4.02764C13.0685 4.02939 13.0702 4.03115 13.072 4.03291C13.0738 4.03467 13.0755 4.03643 13.0773 4.03819C13.079 4.03995 13.0808 4.0417 13.0826 4.04346C13.0843 4.04522 13.0861 4.04698 13.0878 4.04874C13.0896 4.05049 13.0913 4.05225 13.0931 4.05401C13.0949 4.05577 13.0966 4.05753 13.0984 4.05928C13.1001 4.06104 13.1019 4.0628 13.1037 4.06456C13.1054 4.06632 13.1072 4.06807 13.1089 4.06983C13.1107 4.07159 13.1124 4.07335 13.1142 4.07511C13.116 4.07686 13.1177 4.07862 13.1195 4.08038C13.1212 4.08214 13.123 4.08389 13.1247 4.08565C13.1265 4.08741 13.1283 4.08917 13.13 4.09093C13.1318 4.09268 13.1335 4.09444 13.1353 4.0962C13.1371 4.09796 13.1388 4.09972 13.1406 4.10147C13.1423 4.10323 13.1441 4.10499 13.1458 4.10675C13.1476 4.10851 13.1494 4.11026 13.1511 4.11202C13.1529 4.11378 13.1546 4.11554 13.1564 4.1173C13.1581 4.11905 13.1599 4.12081 13.1617 4.12257C13.1634 4.12433 13.1652 4.12609 13.1669 4.12785C13.1687 4.1296 13.1705 4.13136 13.1722 4.13312C13.174 4.13488 13.1757 4.13664 13.1775 4.1384C13.1793 4.14016 13.181 4.14192 13.1828 4.14368C13.1845 4.14543 13.1863 4.14719 13.188 4.14895C13.1898 4.15071 13.1916 4.15247 13.1933 4.15423C13.1951 4.15599 13.1968 4.15775 13.1986 4.15951C13.2004 4.16127 13.2021 4.16303 13.2039 4.16479C13.2056 4.16655 13.2074 4.16831 13.2092 4.17007C13.2109 4.17183 13.2127 4.17359 13.2144 4.17535C13.2162 4.17711 13.218 4.17887 13.2197 4.18064C13.2215 4.1824 13.2233 4.18416 13.225 4.18592C13.2268 4.18768 13.2285 4.18944 13.2303 4.1912C13.2321 4.19297 13.2338 4.19473 13.2356 4.19649C13.2373 4.19825 13.2391 4.20001 13.2409 4.20178C13.2426 4.20354 13.2444 4.2053 13.2462 4.20707C13.2479 4.20883 13.2497 4.21059 13.2514 4.21235C13.2532 4.21412 13.255 4.21588 13.2567 4.21765C13.2585 4.21941 13.2603 4.22117 13.262 4.22294C13.2638 4.2247 13.2656 4.22647 13.2673 4.22823C13.2691 4.23 13.2709 4.23176 13.2726 4.23353C13.2744 4.23529 13.2762 4.23706 13.2779 4.23882C13.2797 4.24059 13.2815 4.24236 13.2832 4.24412C13.285 4.24589 13.2867 4.24765 13.2885 4.24942C13.2903 4.25119 13.2921 4.25296 13.2938 4.25472C13.2956 4.25649 13.2974 4.25826 13.2991 4.26003C13.3009 4.2618 13.3027 4.26356 13.3044 4.26533C13.3062 4.2671 13.308 4.26887 13.3097 4.27064C13.3115 4.27241 13.3133 4.27418 13.315 4.27595C13.3168 4.27772 13.3186 4.27949 13.3204 4.28126C13.3221 4.28303 13.3239 4.2848 13.3257 4.28657C13.3274 4.28834 13.3292 4.29012 13.331 4.29189C13.3328 4.29366 13.3345 4.29543 13.3363 4.29721C13.3381 4.29898 13.3398 4.30075 13.3416 4.30253C13.3434 4.3043 13.3452 4.30607 13.3469 4.30785C13.3487 4.30962 13.3505 4.3114 13.3523 4.31317C13.354 4.31495 13.3558 4.31672 13.3576 4.3185C13.3594 4.32027 13.3611 4.32205 13.3629 4.32383C13.3647 4.3256 13.3665 4.32738 13.3683 4.32916C13.37 4.33094 13.3718 4.33271 13.3736 4.33449C13.3754 4.33627 13.3771 4.33805 13.3789 4.33983C13.3807 4.34161 13.3825 4.34339 13.3843 4.34517C13.386 4.34695 13.3878 4.34873 13.3896 4.35051C13.3914 4.35229 13.3932 4.35407 13.3949 4.35585C13.3967 4.35764 13.3985 4.35942 13.4003 4.3612C13.4021 4.36299 13.4039 4.36477 13.4056 4.36655C13.4074 4.36834 13.4092 4.37012 13.411 4.37191C13.4128 4.37369 13.4146 4.37548 13.4164 4.37726C13.4181 4.37905 13.4199 4.38083 13.4217 4.38262C13.4235 4.38441 13.4253 4.38619 13.4271 4.38798C13.4289 4.38977 13.4307 4.39156 13.4324 4.39335C13.4342 4.39514 13.436 4.39693 13.4378 4.39872C13.4396 4.40051 13.4414 4.4023 13.4432 4.40409C13.445 4.40588 13.4468 4.40767 13.4486 4.40946C13.4503 4.41126 13.4521 4.41305 13.4539 4.41484C13.4557 4.41663 13.4575 4.41843 13.4593 4.42022C13.4611 4.42202 13.4629 4.42381 13.4647 4.42561C13.4665 4.4274 13.4683 4.4292 13.4701 4.431C13.4719 4.43279 13.4737 4.43459 13.4755 4.43639C13.4773 4.43819 13.4791 4.43998 13.4809 4.44178C13.4827 4.44358 13.4845 4.44538 13.4863 4.44718C13.4881 4.44898 13.4899 4.45078 13.4917 4.45259C13.4935 4.45439 13.4953 4.45619 13.4971 4.45799C13.4989 4.4598 13.5007 4.4616 13.5025 4.4634C13.5043 4.46521 13.5061 4.46701 13.5079 4.46882C13.5097 4.47062 13.5115 4.47243 13.5133 4.47424C13.5151 4.47604 13.5169 4.47785 13.5188 4.47966C13.5206 4.48147 13.5224 4.48328 13.5242 4.48509C13.526 4.48689 13.5278 4.4887 13.5296 4.49052C13.5314 4.49233 13.5332 4.49414 13.535 4.49595C13.5369 4.49776 13.5387 4.49957 13.5405 4.50139C13.5423 4.5032 13.5441 4.50502 13.5459 4.50683C13.5477 4.50865 13.5496 4.51046 13.5514 4.51228C13.5532 4.5141 13.555 4.51591 13.5568 4.51773C13.5586 4.51955 13.5605 4.52137 13.5623 4.52319C13.5641 4.52501 13.5659 4.52683 13.5677 4.52865C13.5696 4.53047 13.5714 4.53229 13.5732 4.53411C13.575 4.53593 13.5769 4.53776 13.5787 4.53958C13.5805 4.54141 13.5823 4.54323 13.5842 4.54506C13.586 4.54688 13.5878 4.54871 13.5896 4.55053C13.5915 4.55236 13.5933 4.55419 13.5951 4.55602C13.5969 4.55785 13.5988 4.55968 13.6006 4.56151C13.6024 4.56334 13.6043 4.56517 13.6061 4.567C13.6079 4.56883 13.6098 4.57066 13.6116 4.5725C13.6134 4.57433 13.6153 4.57616 13.6171 4.578C13.6189 4.57984 13.6208 4.58167 13.6226 4.58351C13.6244 4.58534 13.6263 4.58718 13.6281 4.58902C13.63 4.59086 13.6318 4.5927 13.6336 4.59454C13.6355 4.59638 13.6373 4.59822 13.6392 4.60006C13.641 4.6019 13.6428 4.60375 13.6447 4.60559C13.6465 4.60743 13.6484 4.60928 13.6502 4.61112C13.6521 4.61297 13.6539 4.61482 13.6558 4.61666C13.6576 4.61851 13.6595 4.62036 13.6613 4.62221C13.6632 4.62406 13.665 4.62591 13.6669 4.62776C13.6687 4.62961 13.6706 4.63146 13.6724 4.63331C13.6743 4.63517 13.6761 4.63702 13.678 4.63887C13.6798 4.64073 13.6817 4.64258 13.6835 4.64444C13.6854 4.6463 13.6872 4.64815 13.6891 4.65001C13.691 4.65187 13.6928 4.65373 13.6947 4.65559C13.6965 4.65745 13.6984 4.65931 13.7003 4.66117C13.7021 4.66303 13.704 4.6649 13.7059 4.66676C13.7077 4.66863 13.7096 4.67049 13.7115 4.67236C13.7133 4.67422 13.7152 4.67609 13.7171 4.67796C13.7189 4.67983 13.7208 4.68169 13.7227 4.68356C13.7245 4.68543 13.7264 4.68731 13.7283 4.68918C13.7301 4.69105 13.732 4.69292 13.7339 4.6948C13.7358 4.69667 13.7376 4.69855 13.7395 4.70042C13.7414 4.7023 13.7433 4.70417 13.7451 4.70605C13.747 4.70793 13.7489 4.70981 13.7508 4.71169C13.7527 4.71357 13.7545 4.71545 13.7564 4.71733C13.7583 4.71922 13.7602 4.7211 13.7621 4.72298C13.764 4.72487 13.7658 4.72675 13.7677 4.72864C13.7696 4.73053 13.7715 4.73242 13.7734 4.7343C13.7753 4.73619 13.7772 4.73808 13.7791 4.73997C13.781 4.74186 13.7829 4.74376 13.7847 4.74565C13.7866 4.74754 13.7885 4.74944 13.7904 4.75133C13.7923 4.75323 13.7942 4.75512 13.7961 4.75702C13.798 4.75892 13.7999 4.76082 13.8018 4.76272C13.8037 4.76462 13.8056 4.76652 13.8075 4.76842C13.8094 4.77032 13.8113 4.77222 13.8132 4.77413C13.8151 4.77603 13.817 4.77794 13.8189 4.77985C13.8208 4.78175 13.8228 4.78366 13.8247 4.78557C13.8266 4.78748 13.8285 4.78939 13.8304 4.7913C13.8323 4.79321 13.8342 4.79512 13.8361 4.79704C13.838 4.79895 13.84 4.80086 13.8419 4.80278C13.8438 4.8047 13.8457 4.80661 13.8476 4.80853C13.8495 4.81045 13.8515 4.81237 13.8534 4.81429C13.8553 4.81621 13.8572 4.81813 13.8592 4.82006C13.8611 4.82198 13.863 4.8239 13.8649 4.82583C13.8668 4.82776 13.8688 4.82968 13.8707 4.83161C13.8726 4.83354 13.8746 4.83547 13.8765 4.8374C13.8784 4.83933 13.8804 4.84126 13.8823 4.84319C13.8842 4.84513 13.8862 4.84706 13.8881 4.849C13.89 4.85093 13.892 4.85287 13.8939 4.85481C13.8958 4.85675 13.8978 4.85868 13.8997 4.86063C13.9017 4.86257 13.9036 4.86451 13.9055 4.86645C13.9075 4.86839 13.9094 4.87034 13.9114 4.87228C13.9133 4.87423 13.9153 4.87618 13.9172 4.87813C13.9192 4.88007 13.9211 4.88202 13.9231 4.88397C13.925 4.88593 13.927 4.88788 13.9289 4.88983C13.9309 4.89179 13.9328 4.89374 13.9348 4.8957C13.9367 4.89765 13.9387 4.89961 13.9407 4.90157C13.9426 4.90353 13.9446 4.90549 13.9465 4.90745C13.9485 4.90941 13.9505 4.91138 13.9524 4.91334C13.9544 4.9153 13.9564 4.91727 13.9583 4.91924C13.9603 4.9212 13.9623 4.92317 13.9642 4.92514C13.9662 4.92711 13.9682 4.92908 13.9702 4.93106C13.9721 4.93303 13.9741 4.935 13.9761 4.93698C13.978 4.93895 13.98 4.94093 13.982 4.94291C13.984 4.94489 13.986 4.94687 13.9879 4.94885C13.9899 4.95083 13.9919 4.95281 13.9939 4.95479C13.9959 4.95678 13.9979 4.95876 13.9998 4.96075C14.0018 4.96274 14.0038 4.96472 14.0058 4.96671C14.0078 4.9687 14.0098 4.9707 14.0118 4.97269C14.0138 4.97468 14.0158 4.97667 14.0178 4.97867C14.0198 4.98066 14.0218 4.98266 14.0238 4.98466C14.0258 4.98666 14.0278 4.98866 14.0298 4.99066C14.0318 4.99266 14.0338 4.99466 14.0358 4.99667C14.0378 4.99867 14.0398 5.00068 14.0418 5.00268C14.0438 5.00469 14.0458 5.0067 14.0478 5.00871C14.0498 5.01072 14.0518 5.01273 14.0538 5.01474C14.0559 5.01676 14.0579 5.01877 14.0599 5.02079C14.0619 5.02281 14.0639 5.02482 14.0659 5.02684C14.068 5.02886 14.07 5.03088 14.072 5.0329C14.074 5.03493 14.076 5.03695 14.0781 5.03898C14.0801 5.041 14.0821 5.04303 14.0842 5.04506C14.0862 5.04709 14.0882 5.04912 14.0902 5.05115C14.0923 5.05318 14.0943 5.05521 14.0963 5.05725C14.0984 5.05928 14.1004 5.06132 14.1025 5.06336C14.1045 5.06539 14.1065 5.06743 14.1086 5.06947C14.1106 5.07152 14.1127 5.07356 14.1147 5.0756C14.1167 5.07765 14.1188 5.07969 14.1208 5.08174C14.1229 5.08379 14.1249 5.08584 14.127 5.08789C14.129 5.08994 14.1311 5.09199 14.1331 5.09404C14.1352 5.0961 14.1372 5.09815 14.1393 5.10021C14.1414 5.10227 14.1434 5.10433 14.1455 5.10639C14.1475 5.10845 14.1496 5.11051 14.1517 5.11257C14.1537 5.11464 14.1558 5.1167 14.1579 5.11877C14.1599 5.12084 14.162 5.12291 14.1641 5.12498C14.1661 5.12705 14.1682 5.12912 14.1703 5.13119C14.1724 5.13327 14.1744 5.13534 14.1765 5.13742C14.1786 5.1395 14.1807 5.14158 14.1828 5.14366C14.1848 5.14574 14.1869 5.14782 14.189 5.1499C14.1911 5.15199 14.1932 5.15407 14.1953 5.15616C14.1973 5.15825 14.1994 5.16034 14.2015 5.16243C14.2036 5.16452 14.2057 5.16661 14.2078 5.16871C14.2099 5.1708 14.212 5.1729 14.2141 5.17499C14.2162 5.17709 14.2183 5.17919 14.2204 5.18129C14.2225 5.18339 14.2246 5.1855 14.2267 5.1876C14.2288 5.18971 14.2309 5.19181 14.233 5.19392C14.2351 5.19603 14.2372 5.19814 14.2393 5.20025C14.2415 5.20236 14.2436 5.20448 14.2457 5.20659C14.2478 5.20871 14.2499 5.21082 14.252 5.21294C14.2542 5.21506 14.2563 5.21718 14.2584 5.21931C14.2605 5.22143 14.2626 5.22355 14.2648 5.22568C14.2669 5.22781 14.269 5.22993 14.2712 5.23206C14.2733 5.23419 14.2754 5.23633 14.2776 5.23846C14.2797 5.24059 14.2818 5.24273 14.284 5.24486C14.2861 5.247 14.2882 5.24914 14.2904 5.25128C14.2925 5.25342 14.2947 5.25557 14.2968 5.25771C14.299 5.25986 14.3011 5.262 14.3032 5.26415C14.3054 5.2663 14.3075 5.26845 14.3097 5.2706C14.3118 5.27275 14.314 5.27491 14.3162 5.27706C14.3183 5.27922 14.3205 5.28138 14.3226 5.28354C14.3248 5.2857 14.327 5.28786 14.3291 5.29002C14.3313 5.29218 14.3334 5.29435 14.3356 5.29652C14.3378 5.29868 14.3399 5.30085 14.3421 5.30302C14.3443 5.3052 14.3465 5.30737 14.3486 5.30954C14.3508 5.31172 14.353 5.31389 14.3552 5.31607C14.3573 5.31825 14.3595 5.32043 14.3617 5.32262C14.3639 5.3248 14.3661 5.32698 14.3683 5.32917C14.3705 5.33136 14.3726 5.33355 14.3748 5.33574C14.377 5.33793 14.3792 5.34012 14.3814 5.34231C14.3836 5.34451 14.3858 5.3467 14.388 5.3489C14.3902 5.3511 14.3924 5.3533 14.3946 5.3555C14.3968 5.35771 14.399 5.35991 14.4012 5.36212C14.4034 5.36432 14.4056 5.36653 14.4078 5.36874C14.41 5.37095 14.4123 5.37317 14.4145 5.37538C14.4167 5.37759 14.4189 5.37981 14.4211 5.38203C14.4233 5.38425 14.4256 5.38647 14.4278 5.38869C14.43 5.39091 14.4322 5.39314 14.4345 5.39536C14.4367 5.39759 14.4389 5.39982 14.4411 5.40205C14.4434 5.40428 14.4456 5.40651 14.4478 5.40875C14.4501 5.41098 14.4523 5.41322 14.4546 5.41546C14.4568 5.4177 14.459 5.41994 14.4613 5.42218C14.4635 5.42443 14.4658 5.42667 14.468 5.42892C14.4703 5.43117 14.4725 5.43342 14.4748 5.43567C14.477 5.43792 14.4793 5.44017 14.4815 5.44243C14.4838 5.44468 14.486 5.44694 14.4883 5.4492C14.4906 5.45146 14.4928 5.45372 14.4951 5.45599C14.4973 5.45825 14.4996 5.46052 14.5019 5.46279C14.5042 5.46506 14.5064 5.46733 14.5087 5.4696C14.511 5.47187 14.5132 5.47415 14.5155 5.47642C14.5178 5.4787 14.5201 5.48098 14.5224 5.48326C14.5246 5.48554 14.5269 5.48783 14.5292 5.49011C14.5315 5.4924 14.5338 5.49469 14.5361 5.49698C14.5384 5.49927 14.5407 5.50156 14.5429 5.50385C14.5452 5.50615 14.5475 5.50845 14.5498 5.51074C14.5521 5.51304 14.5544 5.51534 14.5567 5.51765C14.559 5.51995 14.5614 5.52226 14.5637 5.52456C14.566 5.52687 14.5683 5.52918 14.5706 5.53149C14.5729 5.53381 14.5752 5.53612 14.5775 5.53844C14.5798 5.54075 14.5822 5.54307 14.5845 5.54539C14.5868 5.54771 14.5891 5.55004 14.5915 5.55236C14.5938 5.55469 14.5961 5.55702 14.5984 5.55935C14.6008 5.56168 14.6031 5.56401 14.6054 5.56634C14.6078 5.56868 14.6101 5.57102 14.6124 5.57335C14.6148 5.57569 14.6171 5.57804 14.6195 5.58038L15.6801 4.51972ZM12.1498 1.30005H4.0498V2.80005H12.1498V1.30005ZM4.0498 1.30005C2.53559 1.30005 1.2998 2.53584 1.2998 4.05005H2.7998C2.7998 3.36426 3.36402 2.80005 4.0498 2.80005V1.30005ZM1.2998 4.05005V16.65H2.7998V4.05005H1.2998ZM1.2998 16.65C1.2998 18.1643 2.53559 19.4 4.0498 19.4V17.9C3.36402 17.9 2.7998 17.3358 2.7998 16.65H1.2998ZM4.0498 19.4H7.5498V17.9H4.0498V19.4ZM21.2998 16.7501C21.2998 19.263 19.2627 21.3001 16.7498 21.3001V22.8001C20.0912 22.8001 22.7998 20.0914 22.7998 16.7501H21.2998ZM16.7498 21.3001C14.2369 21.3001 12.1998 19.263 12.1998 16.7501H10.6998C10.6998 20.0914 13.4085 22.8001 16.7498 22.8001V21.3001ZM12.1998 16.7501C12.1998 14.2372 14.2369 12.2001 16.7498 12.2001V10.7001C13.4085 10.7001 10.6998 13.4088 10.6998 16.7501H12.1998ZM16.7498 12.2001C19.2627 12.2001 21.2998 14.2372 21.2998 16.7501H22.7998C22.7998 13.4088 20.0912 10.7001 16.7498 10.7001V12.2001ZM13.8893 17.4484L15.4893 19.2484L16.6104 18.2518L15.0104 16.4518L13.8893 17.4484ZM16.6551 19.193L19.6551 15.093L18.4446 14.2072L15.4446 18.3072L16.6551 19.193ZM9.09979 14.25V6.55005H7.59979V14.25H9.09979ZM11.9998 10.7501V7.65009H10.4998V10.7501H11.9998ZM6.19983 14.2501V10.1501H4.69983V14.2501H6.19983Z" fill="#666666"/>
</svg>
