<svg width="24" height="24" viewBox="0 0 24 24" fill="none" xmlns="http://www.w3.org/2000/svg">
<path d="M20.0498 17.7H4.0498C2.9498 17.7 2.0498 16.8 2.0498 15.7V8.40002C2.0498 7.30002 2.9498 6.40002 4.0498 6.40002H20.0498C21.1498 6.40002 22.0498 7.30002 22.0498 8.40002V15.7C22.0498 16.8 21.1498 17.7 20.0498 17.7Z" stroke="#666666" stroke-width="1.5" stroke-miterlimit="10" stroke-linecap="round" stroke-linejoin="round"/>
<path d="M12.0497 14.6C13.4856 14.6 14.6497 13.436 14.6497 12C14.6497 10.5641 13.4856 9.40002 12.0497 9.40002C10.6138 9.40002 9.44971 10.5641 9.44971 12C9.44971 13.436 10.6138 14.6 12.0497 14.6Z" stroke="#666666" stroke-width="1.5" stroke-miterlimit="10" stroke-linecap="round" stroke-linejoin="round"/>
<path d="M18.5498 15.6C19.1021 15.6 19.5498 15.1523 19.5498 14.6C19.5498 14.0478 19.1021 13.6 18.5498 13.6C17.9975 13.6 17.5498 14.0478 17.5498 14.6C17.5498 15.1523 17.9975 15.6 18.5498 15.6Z" fill="#666666"/>
<path d="M5.44971 10.4C6.00199 10.4 6.44971 9.95231 6.44971 9.40002C6.44971 8.84774 6.00199 8.40002 5.44971 8.40002C4.89742 8.40002 4.44971 8.84774 4.44971 9.40002C4.44971 9.95231 4.89742 10.4 5.44971 10.4Z" fill="#666666"/>
</svg>
