<svg width="24" height="24" viewBox="0 0 24 24" fill="none" xmlns="http://www.w3.org/2000/svg">
<path d="M17.2501 14.15C17.1501 14.05 17.1501 13.95 17.0501 13.85C16.7501 13.65 16.4501 13.45 16.0501 13.45C15.6501 13.45 15.2501 13.55 15.0501 13.75C14.7501 13.95 14.6501 14.25 14.5501 14.65C14.5501 15.05 14.6501 15.25 14.9501 15.45C15.1501 15.65 15.4501 15.75 15.9501 15.85C16.3501 15.95 16.7501 16.15 16.9501 16.25C17.2501 16.45 17.3501 16.75 17.3501 17.15C17.3501 17.55 17.1501 17.85 16.8501 18.05C16.5501 18.25 16.2501 18.35 15.8501 18.35C15.4501 18.35 15.0501 18.25 14.7501 18.05C14.6501 17.95 14.5501 17.85 14.4501 17.75M15.9501 12.75V13.45M15.9501 18.45V19.15M14.55 7.15005V3.45005C14.55 2.65005 13.95 2.05005 13.15 2.05005H3.45005C2.65005 2.05005 2.05005 2.65005 2.05005 3.45005V16.85L3.85005 18.65L5.65005 16.85L7.45005 18.65M5.35004 6.15002H11.15M5.35004 12.35H7.45004M5.35004 9.25H9.75004M22.05 15.95C22.05 19.3189 19.319 22.05 15.95 22.05C12.5811 22.05 9.85004 19.3189 9.85004 15.95C9.85004 12.581 12.5811 9.84998 15.95 9.84998C19.319 9.84998 22.05 12.581 22.05 15.95Z" stroke="#666666" stroke-width="1.5" stroke-miterlimit="10" stroke-linecap="round" stroke-linejoin="round"/>
</svg>
