<svg width="24" height="24" viewBox="0 0 24 24" fill="none" xmlns="http://www.w3.org/2000/svg">
<path d="M20.95 11.95C20.95 10.65 20.05 9.45005 18.85 9.15005C19.45 8.05005 19.25 6.55005 18.35 5.65005C17.35 4.65005 15.95 4.55005 14.85 5.15005C14.45 3.95005 13.35 3.05005 12.05 3.05005C10.75 3.05005 9.44995 3.85005 9.04995 5.05005C7.94995 4.45005 6.44995 4.55005 5.54995 5.55005C4.54995 6.55005 4.44995 7.95005 5.04995 9.05005C3.84995 9.45005 2.94995 10.55 2.94995 11.95C2.94995 13.25 3.84995 14.45 5.04995 14.75C4.44995 15.85 4.64995 17.35 5.54995 18.25C6.54995 19.25 7.94995 19.35 9.04995 18.75C9.44995 19.95 10.55 20.85 11.85 20.85C13.15 20.85 14.35 19.95 14.65 18.75C15.75 19.35 17.25 19.15 18.15 18.25C19.15 17.25 19.25 15.85 18.65 14.75C19.95 14.35 20.95 13.25 20.95 11.95Z" stroke="#666666" stroke-width="1.5" stroke-miterlimit="10" stroke-linecap="round" stroke-linejoin="round"/>
<path d="M9.05005 10.05C9.60233 10.05 10.05 9.60233 10.05 9.05005C10.05 8.49776 9.60233 8.05005 9.05005 8.05005C8.49776 8.05005 8.05005 8.49776 8.05005 9.05005C8.05005 9.60233 8.49776 10.05 9.05005 10.05Z" fill="#666666"/>
<path d="M14.75 15.75C15.3023 15.75 15.75 15.3023 15.75 14.75C15.75 14.1977 15.3023 13.75 14.75 13.75C14.1977 13.75 13.75 14.1977 13.75 14.75C13.75 15.3023 14.1977 15.75 14.75 15.75Z" fill="#666666"/>
<path d="M8.44995 15.45L15.45 8.45001" stroke="#666666" stroke-width="1.5" stroke-miterlimit="10" stroke-linecap="round" stroke-linejoin="round"/>
</svg>
