<svg width="24" height="24" viewBox="0 0 24 24" fill="none" xmlns="http://www.w3.org/2000/svg">
<path fill-rule="evenodd" clip-rule="evenodd" d="M14.9375 20.4125C16.6375 21.4125 18.6375 21.2125 20.0375 19.8125L20.7375 19.1125C21.1375 18.7125 21.1375 18.1125 20.7375 17.8125L17.9375 15.0125C17.5375 14.6125 16.9375 14.6125 16.6375 15.0125C15.8375 15.8125 14.3375 15.8125 13.5375 15.0125L8.93745 10.6125C8.13745 9.71246 8.13745 8.31246 8.93745 7.41246C9.13745 7.31246 9.23745 7.01246 9.23745 6.81246C9.23745 6.51246 9.13745 6.31246 8.93745 6.11246L6.13745 3.31246C5.83745 3.01246 5.23745 3.01246 4.83745 3.31246L4.23745 4.01246C2.83745 5.41246 2.63745 7.51246 3.63745 9.11246C6.63745 13.6125 10.4375 17.4125 14.9375 20.4125Z" stroke="#666666" stroke-width="1.5" stroke-miterlimit="10" stroke-linecap="round" stroke-linejoin="round"/>
</svg>
