<svg width="24" height="24" viewBox="0 0 24 24" fill="none" xmlns="http://www.w3.org/2000/svg">
<path d="M16.7993 21C16.0717 21 15.3875 20.2306 14.899 19.6296C14.3371 18.9287 13.8544 18.1679 13.4597 17.3611C12.8631 16.316 12.5677 15.1264 12.6064 13.9241C12.7125 12.8869 13.2003 11.926 13.9752 11.2273C14.7502 10.5285 15.7573 10.1417 16.8015 10.1417C17.8457 10.1417 18.8527 10.5285 19.6277 11.2273C20.4027 11.926 20.8904 12.8869 20.9966 13.9241C21.0352 15.1264 20.7399 16.316 20.1432 17.3611C19.7486 18.1679 19.2659 18.9286 18.7039 19.6296C18.2154 20.2306 17.5269 21 16.7993 21Z" stroke="#666666" stroke-width="1.5" stroke-linecap="round" stroke-linejoin="round"/>
<path d="M7.1963 13.8583C6.46869 13.8583 5.78445 13.0888 5.29599 12.4879C4.73403 11.7869 4.25135 11.0261 3.85671 10.2194C3.26005 9.17427 2.9647 7.9847 3.00336 6.78236C3.10949 5.74521 3.59725 4.78426 4.37222 4.08553C5.14719 3.3868 6.15426 3 7.19845 3C8.24265 3 9.24972 3.3868 10.0247 4.08553C10.7997 4.78426 11.2874 5.74521 11.3935 6.78236C11.4322 7.9847 11.1369 9.17426 10.5402 10.2194C10.1456 11.0261 9.66288 11.7869 9.10092 12.4879C8.61233 13.0888 7.92387 13.8583 7.1963 13.8583Z" stroke="#666666" stroke-width="1.5" stroke-linecap="round" stroke-linejoin="round"/>
<path d="M7.19857 8.16614C7.00046 8.16618 6.80679 8.10756 6.64204 7.9977C6.4773 7.88783 6.34889 7.73165 6.27306 7.54892C6.19723 7.36618 6.17737 7.1651 6.21601 6.9711C6.25465 6.7771 6.35005 6.5989 6.49014 6.45903C6.63022 6.31917 6.80871 6.22392 7.00302 6.18534C7.19732 6.14676 7.39873 6.16658 7.58175 6.2423C7.76477 6.31801 7.9212 6.44622 8.03124 6.6107C8.14128 6.77518 8.19999 6.96855 8.19995 7.16635C8.19961 7.4314 8.094 7.68551 7.90628 7.87293C7.71856 8.06036 7.46405 8.1658 7.19857 8.16614Z" fill="#666666"/>
<path d="M16.8016 15.2974C16.6035 15.2974 16.4098 15.2388 16.2451 15.1289C16.0804 15.0191 15.9519 14.8629 15.8761 14.6802C15.8003 14.4975 15.7804 14.2964 15.819 14.1024C15.8576 13.9084 15.953 13.7302 16.0931 13.5903C16.2332 13.4505 16.4116 13.3552 16.6059 13.3166C16.8002 13.278 17.0016 13.2978 17.1846 13.3735C17.3677 13.4491 17.5241 13.5773 17.6342 13.7418C17.7442 13.9062 17.803 14.0996 17.803 14.2974C17.8027 14.5625 17.6971 14.8166 17.5094 15.0041C17.3217 15.1916 17.0671 15.297 16.8016 15.2974Z" fill="#666666"/>
</svg>
