<svg width="24" height="24" viewBox="0 0 24 24" fill="none" xmlns="http://www.w3.org/2000/svg">
<path d="M13.1795 4.19695L14.8795 7.69695C15.0795 8.09695 15.4795 8.39695 15.8795 8.39695L19.7795 8.99695C20.8795 9.19695 21.2795 10.497 20.4795 11.297L17.6795 13.997C17.3795 14.297 17.1795 14.697 17.2795 15.197L17.9795 18.997C18.1795 20.097 16.9795 20.897 15.9795 20.397L12.4795 18.597C12.0795 18.397 11.5795 18.397 11.1795 18.597L7.67951 20.397C6.67951 20.897 5.57951 20.097 5.67951 18.997L6.37951 15.197C6.57951 14.697 6.47951 14.197 6.17951 13.897L3.37951 11.197C2.57951 10.397 2.97951 9.09695 4.07951 8.89695L7.97951 8.29695C8.37951 8.19695 8.77951 7.99695 8.97951 7.59695L10.6795 4.09695C11.1795 3.19695 12.6795 3.19695 13.1795 4.19695Z" stroke="#666666" stroke-width="1.5" stroke-miterlimit="10" stroke-linecap="round" stroke-linejoin="round"/>
</svg>
