<svg width="24" height="24" viewBox="0 0 24 24" fill="none" xmlns="http://www.w3.org/2000/svg">
<path d="M1.7998 20.8001H22.2998M2.99976 9.30013L7.99976 4.70013L15.3998 6.20013L19.8998 3.20013M13.9998 20.8001H9.99976V10.4001C9.99976 9.80009 10.3998 9.40009 10.9998 9.40009H12.9998C13.5998 9.40009 13.9998 9.80009 13.9998 10.4001V20.8001ZM20.9998 20.8001H16.9998V13.5001C16.9998 12.9001 17.3998 12.5001 17.9998 12.5001H19.9998C20.5998 12.5001 20.9998 12.9001 20.9998 13.5001V20.8001ZM6.99976 20.8001H2.99976V16.4001C2.99976 15.8001 3.39976 15.4001 3.99976 15.4001H5.99976C6.59976 15.4001 6.99976 15.8001 6.99976 16.4001V20.8001Z" stroke="#666666" stroke-width="1.5" stroke-miterlimit="10" stroke-linecap="round" stroke-linejoin="round"/>
</svg>
